<?xml version="1.0" encoding="UTF-8"?>
<svg width="16" height="16" viewBox="0 0 16 16" fill="none" xmlns="http://www.w3.org/2000/svg">
  <path fill-rule="evenodd" clip-rule="evenodd" d="M8 1.5a6.5 6.5 0 100 13 6.5 6.5 0 000-13zm4.37 3.03a5.54 5.54 0 011.25 3.47c-.18-.04-2.01-.41-3.85-.19-.15-.36-.29-.68-.44-.98a10.3 10.3 0 01-.47-.97c1.75-.71 2.54-1.74 2.71-1.9.3.17.58.37.83.59zM8 2.47c1.42 0 2.72.53 3.7 1.41-.13.19-.82 1.12-2.5 1.77a27.81 27.81 0 00-1.77-2.77c.18-.03.37-.04.56-.04zM6.1 3.2a33.07 33.07 0 011.75 2.73c-2.21.59-4.17.6-4.38.6h-.04a5.55 5.55 0 012.67-3.33zm-2.67 4.3v-.19h.04c.26 0 2.67-.03 5.12-.8.14.28.28.57.4.85l-.2.06c-2.57.83-3.93 3.1-4.1 3.4A5.54 5.54 0 013.43 7.5zm4.57 6.03a5.54 5.54 0 01-3.43-1.18c.13-.27 1.25-2.38 3.96-3.27.06-.02.13-.04.2-.06 .7 1.83 1 3.37 1.07 3.81-.56.24-1.17.37-1.8.37zm2.93-1.01c-.05-.32-.32-1.86-.98-3.66 1.73-.28 3.24.18 3.43.23a5.54 5.54 0 01-2.45 3.43z" fill="#fff"/>
</svg>
