<?xml version="1.0" encoding="UTF-8"?>
<svg width="16" height="16" viewBox="0 0 16 16" fill="none" xmlns="http://www.w3.org/2000/svg">
  <path fill-rule="evenodd" clip-rule="evenodd" d="M8 1.5a6.5 6.5 0 00-2.05 12.68c.32.06.44-.14.44-.31v-1.07c-1.79.39-2.17-.86-2.17-.86-.29-.74-.71-.94-.71-.94-.58-.4.04-.39.04-.39.64.05.98.66.98.66.57.98 1.5.7 1.86.53.06-.41.22-.7.4-.86-1.4-.16-2.87-.7-2.87-3.12 0-.69.24-1.25.64-1.69-.06-.16-.28-.8.06-1.66 0 0 .52-.17 1.7.63a5.89 5.89 0 013.16 0c1.18-.8 1.7-.63 1.7-.63.34.86.12 1.5.06 1.66.4.44.64 1 .64 1.69 0 2.42-1.48 2.96-2.88 3.12.22.19.42.57.42 1.15v1.71c0 .17.12.37.44.31A6.5 6.5 0 008 1.5z" fill="#fff"/>
</svg>
