<?xml version="1.0" encoding="UTF-8"?>
<svg width="16" height="16" viewBox="0 0 16 16" fill="none" xmlns="http://www.w3.org/2000/svg">
  <path d="M8 4.75a3.25 3.25 0 100 6.5 3.25 3.25 0 000-6.5zM8 10a2 2 0 110-4 2 2 0 010 4z" fill="#fff"/>
  <path d="M11.5 2.75h-7a1.75 1.75 0 00-1.75 1.75v7c0 .966.784 1.75 1.75 1.75h7a1.75 1.75 0 001.75-1.75v-7a1.75 1.75 0 00-1.75-1.75zm.5 8.75a.5.5 0 01-.5.5h-7a.5.5 0 01-.5-.5v-7a.5.5 0 01.5-.5h7a.5.5 0 01.5.5v7z" fill="#fff"/>
  <path d="M11.7 4.5a.7.7 0 11-1.4 0 .7.7 0 011.4 0z" fill="#fff"/>
</svg>
