<?xml version="1.0" encoding="UTF-8"?>
<svg width="16" height="16" viewBox="0 0 16 16" fill="none" xmlns="http://www.w3.org/2000/svg">
  <path d="M13.567 4.5c-.37.163-.766.273-1.18.322.424-.254.75-.657.904-1.137-.398.236-.837.407-1.304.5A2.06 2.06 0 0010.923 3.5a2.06 2.06 0 00-2.063 2.064c0 .162.018.32.054.47-1.715-.086-3.233-.908-4.248-2.157-.177.305-.279.66-.279 1.038 0 .716.364 1.348.917 1.718-.338-.011-.656-.104-.934-.258v.026c0 1 .71 1.834 1.653 2.023-.173.047-.355.072-.543.072-.133 0-.262-.013-.388-.037.262.82 1.023 1.417 1.923 1.433-.704.552-1.591.88-2.557.88-.166 0-.33-.01-.49-.028.91.583 1.992.924 3.155.924 3.785 0 5.857-3.137 5.857-5.857 0-.089-.002-.178-.006-.266.402-.29.75-.653 1.026-1.067z" fill="#fff"/>
</svg>
